<svg xmlns="http://www.w3.org/2000/svg" viewBox="0 0 416.66 342.39"><defs><style>.cls-1{fill:#0a8ae2;}.cls-2{fill:#fefefe;}.cls-3{fill:#fdfdfd;}.cls-4{fill:#f9f9f9;}.cls-5{fill:#f2f2f2;}.cls-6{fill:#efefef;}.cls-7{fill:#e5e5e5;}.cls-8{fill:#e1e1e1;}.cls-9{fill:#cdcdcd;}.cls-10{fill:#adadad;}.cls-11{fill:#bdbdbd;}.cls-12{fill:#b5b5b5;}.cls-13{fill:#b8b8b8;}.cls-14{fill:#9f9f9f;}.cls-15{fill:#cacaca;}.cls-16{fill:#bcbcbc;}.cls-17{fill:#232323;}</style></defs><title>logo</title><g id="Livello_2" data-name="Livello 2"><g id="Livello_1-2" data-name="Livello 1"><path class="cls-1" d="M222.91,0C317.39.1,394,76.79,394,171.22S317,342.64,222.53,342.39,51.44,265.36,51.61,171,128.52-.1,222.91,0Z"/><path class="cls-2" d="M307.34,50.67c-.6.53-1.14,1-2.06.45-3.7-2-8-1.82-11.93-3.17-4.12-1.41-9,2.24-9.24,6.54-.19,3.52-.33,6.93-3.19,9.53-.35.32-.68,1.18-.51,1.48,1.74,3,2.9,7.13,5.87,8.31,3.12,1.24,2.55,3.76,3.76,5.54.82,1.22-1.35.9-1.85,1.66-2.23,3.39-4.11,2.57-6.28-.24-1.85-2.4-4.76-3.79-5.55-7.29C276,72,273.69,70.57,272,69.8s-3.64-.27-3.78,2.3c-.17,3.12-1.27,5.47-4.62,6.35a2.19,2.19,0,0,0-1.48,3,8.93,8.93,0,0,1,.37,4.55c-.29,1.71.87,2.25,2.53,2.18,2.16-.09,4-1.27,6.41-1.63-.69,2.26-2.08,4.66,1.63,5.12.09,0,.26.16.25.19-1.41,4.42,2.08,4.77,4.78,5.89a2.78,2.78,0,0,1,1.51,3.68c-.59,1.54-2.07.31-3.16.35-2.64.09-5.28-1.83-8,.65-1.28,1.18-1.92,2.12-1.55,3.64a14.13,14.13,0,0,1-.18,8c-.79,2.37,1.28,3.7,1.74,5.6.59,2.46,2.17,3.24,4.59,2.44.28-.09.88.26,1.1.58.41.6-.13,1-.55,1.38-1.36,1.18-2.66,2.46-4.11,3.51a10.3,10.3,0,0,0-4.26,6.93c-.66,3.66-4.2,4.73-6.94,6.29a8.48,8.48,0,0,0-3.69,3.69c-2.44,4.81-5.55,9.26-7.6,14.29-.67,1.64-1.16,3.2-.41,4.87,1.93,4.28,2.06,8.43-.69,12.45-1.49,2.18-.49,4.22-.25,6.57.54,5.23,4.09,8.16,6.54,11.88,4,6.06,10.25,9.6,16.14,13.48a2,2,0,0,0,1.6.2c5.2-2.11,10.72-1.19,16.07-1.6,3.35-.26,6.15-2,9.41-2.25,1.63-.13,2.86,0,3.19,1.91.39,2.27,1.76,2.73,3.94,2.44,3.78-.49,5.67,2,3.73,5.16-2.64,4.31-2.6,8.27-.23,12.61,3.49,6.36,1.83,13-.06,19.26-.73,2.45-3,4.63-4.63,6.77-2.34,3-4.1,5.8-2.83,9.71a2.14,2.14,0,0,1,0,1.33c-3.21,8.32-3.66,17.7-9.54,25a2.23,2.23,0,0,0-.38.56c-.52,1.36-2.55,2.61-1.07,4.14,1.19,1.24,2.88.1,4.41-.12,7.61-1.1,14-4.55,20-9.2,1.78-1.39,3.71-2.63,5-4.47,2.44-3.37,7-4,9.35-7.49.55-.83,1.62-1.42,1.95-2.3,1.92-5.15,6.61-7.38,10.82-10.75.1,2.58-1.33,3.81-2.7,5.21-3.18,3.24-6.75,6.29-6.86,11.44,0,.61-.85,1.25-1.4,1.78-24.17,23.57-52.89,37.78-86.43,42.13a141.73,141.73,0,0,1-37.07.05c-1.42-.19-4.17.32-1.23-2.41,1.43-1.33-.23-2.43-1.2-3.25s-3-1.64-3.48-.17c-1.08,3.11-2.59,1.43-3.63.52a74.49,74.49,0,0,1-11-11.09,2,2,0,0,1,.2-3c.81-.67,1.72-1.55,1.2-2.56-1.72-3.36.11-6.19,1.24-9a11.38,11.38,0,0,0-.56-10c-.88-1.65-.72-2.9,1.16-3.35,8.35-2,9.13-8.73,9.79-15.56.22-2.32-.64-4.43-1.13-6.62-.38-1.7-.52-2.9,1.43-4.19,4.41-2.91,6.82-12.92,4.67-17.68a3.07,3.07,0,0,0-1.24-1.51c-6.09-2.77-11.63-7-18.75-7.06-4.59-.06-9-1.67-11.8-5s-6.83-5.64-8.74-9.78a6.27,6.27,0,0,0-4-3.36c-3.62-1.14-6.38-4.17-10.87-3.64-3.11.37-4.71-5-2.82-8.28s1.67-3.59-1.75-3.79c-2.24-.13-3.53-.28-2.77-3.36.53-2.16-.81-4.63-.62-7.15.1-1.36-.18-2.62.37-4.1.89-2.39-2.74-6.77-6.14-7.68-1.93-.52-3.87-1.21-5.94-.74-.31.07-.79.19-1,0-2.76-2.68-7.07-1.19-9.93-3.73-.7-.62-1.77-.5-1.47-2s-.16-3.57-1.95-4.24-2.12,1.55-3.24,2.44c-3-2-5.95-4.1-8.94-6.1A5.61,5.61,0,0,0,92,154.05a2.55,2.55,0,0,1-2.53,1.62c-3.74.13-7.58.32-7.85,5.52a1.32,1.32,0,0,1-1.29,1.31c-1.11.13-1.28-.71-1.59-1.39-2-4.33.17-8.39.92-12.51.83-4.57,4-8,6.43-11.76,1.35-2.06,2.92-1.1,4.16.27,1.77,2,3.37,2.31,4.56-.41.67-1.54,1.63-.77,2.51-.57a1.79,1.79,0,0,1,1.65,2.1c-.19,2.47-.21,5-.25,7.44,0,.77,0,2.17.26,2.22,2.91.6,4.89,3.16,7.79,3.63a1.75,1.75,0,0,0,2.07-1.76c0-1.5.21-3.61-1.43-4.19-2.18-.77-1.62-1.84-1.18-3.32a36.87,36.87,0,0,0,.8-4.31c.7-4,2.27-7.41,6-9.56,2.63-1.51,5.08-3.34,7.57-5.08.72-.5,1.79-1.09,1.92-1.79,1.1-5.86,7.44-7.07,10.13-11.55.8-1.34,2.92-.95,4.46-1,1.94,0,3.85-.94,4-2.47.51-4.32,4.57-3.27,6.71-5,.27-.22.87-.52,1,.18.69,3.62,2.87,1.82,4.58,1.2,3.66-1.33,7.31-2.72,10.89-4.25,1.29-.55,2.64-1.28,2-3.32-.52-1.53.24-1.53,1.75-1.38,2.67.27,4.45,2.54,7.5,2.26,5.24-.48,7.15-2.59,5.52-7.49-.16-.47-1.11-1.07-.51-1.33,2.91-1.26.83-4.32,2.34-6.06.49-.56.42-1.61-.24-1.77-4.94-1.14-1.75-5.1-2.54-7.62-.69-2.21,1.24-4.71.48-7.26-.14-.46.49-1.62.88-1.68,2.89-.41,4.51-3.08,7-3.9,1.74-.57,3.25-1.5,4.89-2.2,2.34-1,2.88-2.34,1-4.32-.93-1-1.67-1.77-.43-3.37s-.69-3.09-1.58-4.35c-1-1.43-1.09-2.66.52-3.18,2.78-.89,5-3.16,8.09-3.19,2,.15.45,2.12,1.45,2.78.08.08.16.23.24.23,6-.45,5.48,3.67,5.61,7.61,0,1.17-.31,1.21-1.12,1.48-3.12,1-4.93,3.18-4.59,6.55.16,1.62-1.46,2.3-1.24,4.21.47,4.09,3.1,6.14,6,8,1.6,1,3.53.06,5-1.06a22.16,22.16,0,0,0,3.34-3.35c2.75-3.31,6-5.63,10.47-6a.59.59,0,0,0,.32-.08c5-4.37,11.84-3.47,17.39-6.29,1.79-.91,3.13-2,3.38-3.81.48-3.46,2.39-6.9.45-10.46-.66-1.22.18-1.16,1-1.33,1.27-.26,2.48-.93,2.4-2.39-.07-1.27-1.3-1.86-2.4-2-2.7-.43-5.18-1.09-6.68-3.67a1.33,1.33,0,0,0-.86-.49c-7-1.11-14.07-2.1-20.64,1.42-2.61,1.4-4.15,1.2-5.84-1.06-1.36-1.83-3.95-2-5.47-3.83a2.1,2.1,0,0,0-2.83.14c-2.9,3.22-7.95,3.65-10.24,8.69-.57-3.92-2.06-3.49-4.1-1.94A17.81,17.81,0,0,0,187.77,36c-.27.4-.16,1.26-1,.94-.67-.25-.71-.8-.44-1.38.46-1,1.29-2.14-.15-2.91-1.23-.66-2.15.38-2.94,1.11-1,1-1.89,2.47-3,.07a1,1,0,0,0-.88-.4c-4.32,1.46-9.24-.26-13.28,2.19-4.94,3-11.26,2.9-15.57,7.2-.86.86-1.57,0-1.94-.49-.85-1.14.51-1.25,1-1.55a141.37,141.37,0,0,1,32.31-13.44Q242.17,11.07,296.87,41.2c4,2.21,6.16,6.57,10.52,8.19A.8.8,0,0,1,307.34,50.67Z"/><path class="cls-2" d="M183.52,315.35a142.75,142.75,0,0,1-57.19-30Q87.19,252,76.41,201.68a148.55,148.55,0,0,1-3-24.78c0-.6-.69-2.35.68-1.77s3.09-2,4,.72a12,12,0,0,0,5.65,6.88c1.74,1,1.58,3.13,2.25,4.75,1.27,3.07,1.29,6.78,5.48,8.09,1.38.43,2.33,2.32,3.43,3.57.53.6,1.13,1.51,1.9,1.07,4.25-2.43,3.43,1.34,4,3.24,1.44,5,.84,9.87-.31,14.92-1.43,6.27.94,12.46,4.91,16.73,4.46,4.8,8.39,10,12.49,15,3.55,4.35,7.4,8.12,12.64,10.31a16.3,16.3,0,0,1,7.68,6.79,172.08,172.08,0,0,0,25.75,32.08c5.12,5,11.18,8.86,17.12,12.82,1.29.86,2.54,1.78,3.81,2.67C184.87,316,184.19,315.66,183.52,315.35Z"/><path class="cls-3" d="M313.46,126.55c2.13,1.37,3.14-.4,3.47-1.75.93-3.73,2.45-7.24,3.68-11a84.89,84.89,0,0,1,6.24,6.18c2.11,2.1,3.84,5.06,7.22,5.56,1.76.26,4.09,1.85,4.51-1.8.12-1,4.13-.84,4.62.23.67,1.49,2,2,3.35,2.52.8.34,1.92-2,2.23.17a15.64,15.64,0,0,1-.34,5c-.09.48-1,0-1.47-.14-1.32-.36-2.57-.76-3.63.68-.86,1.17-1.82.1-2.72-.15-3.19-.89-6.24-2.28-9.59-2.58-1.72-.15-3.47.32-3.86,2-.57,2.43-1.66,2-3,.94-3.39-2.71-7.83-2.55-11.55-4.32C312.54,127.32,312.13,126.47,313.46,126.55Z"/><path class="cls-3" d="M285.07,121.13c2.28-2.18,5.57-3.94,3.37-8,2.25-2,4.3-4.42,6.86-5.95.92-.55,3-.08,4.25-.77.56,2.54,1.11,4.92,1.59,7.31.41,2,1.54,2.58,3.44,1.93s2.66-1.59,1.85-3.55c-.37-.89-.58-1.84-1-3.23l8.67,5.37c-3.05.35-7-.81-5.14,3.74-8.12,1.54-16.36.4-23.89,3.83q-.31-.23-.2-.45T285.07,121.13Z"/><path class="cls-3" d="M163.21,60.9c-1.48,2.23-2.9,4.51-5.74,5.32a2.4,2.4,0,0,0-1.42,1.32c-1.5,4.55-5.8,5.12-9.38,6.73-.27.12-.61.3-.85.22-1.92-.65-3.31-7.43-1.85-8.79,3.88-3.64,9.38-4.1,13.68-7,1.12-.75,1.61.76,2.24,1.45C160.86,61.09,162.23,60.08,163.21,60.9Z"/><path class="cls-4" d="M308.52,76.25a15.61,15.61,0,0,0-6.7,1.77c.15-2.33-.28-4.36.65-6.29.35-.73-.16-2.1,1.09-2.12A3.37,3.37,0,0,1,306.49,71,11.4,11.4,0,0,1,308.52,76.25Z"/><path class="cls-5" d="M167.4,90c-.38.77.63,3-2.27,1.66-1.76-.8-2.61,1.64-3.9,2.58-.55.4-1,1.54-1.84.52a1.33,1.33,0,0,1,.35-2,7.12,7.12,0,0,0,2.91-3.85c.54-1.61,2.53-.54,3.87-.73S167.34,89.06,167.4,90Z"/><path class="cls-6" d="M171.62,59.57c3.93-.73,3.4,4.44,6.66,4.57a7.54,7.54,0,0,1-4,2.26C176.38,62.83,172.25,62.06,171.62,59.57Z"/><path class="cls-7" d="M179.25,51c-1.37,1.24-2,3.68-4.86,2.91C175.79,52.34,176.68,50.44,179.25,51Z"/><path class="cls-8" d="M171.07,55.85a17.61,17.61,0,0,1-2.17,2.82c-.21.19-.93-.71-.83-1.49.16-1.18.52-2.15,1.91-2.26C170.66,54.87,170.81,55.4,171.07,55.85Z"/><path class="cls-9" d="M183.52,315.35l1.34-.6c1.08.42,2.36.45,3.45,1.71A8.49,8.49,0,0,1,183.52,315.35Z"/><path class="cls-10" d="M307.34,50.67l.05-1.27c1.06.64,2.53.41,3.58,1.53C309.51,51.8,308.51,50.34,307.34,50.67Z"/><path class="cls-11" d="M285.07,121.13v.68c-.94,1.3-2.2.58-3.42.32Z"/><path class="cls-12" d="M202.53,41.26c-1.22-.54-.28-2.21-1.45-2.78.77-.78,1.33-.86,1.39.46C202.51,39.72,202.51,40.49,202.53,41.26Z"/><path class="cls-13" d="M313.46,126.55c-.67.28-.67.91-.79,1.48-1-.9-.61-1.94-.29-3.51Z"/><path class="cls-14" d="M163.21,60.9c-1.16,0-2.39.4-3.31-.71l3.55.3a.3.3,0,0,1,0,.23A1,1,0,0,1,163.21,60.9Z"/><path class="cls-15" d="M311.77,122.75a14.07,14.07,0,0,1-.44-2.1c0-.17.43-.53.57-.49.49.14,1.1.34.83,1.07A11,11,0,0,1,311.77,122.75Z"/><path class="cls-1" d="M249.07,64.41c-4.25,0-8.39-3.2-9.26-6.75a1.51,1.51,0,0,1,.73-1.71c2-1.43,13-.46,14.9,1.34,2.28,2.17,2,3.71-.93,5C252.56,63.06,250.57,63.81,249.07,64.41Z"/><path class="cls-1" d="M280.21,39.49c.12,1-3.39,3.47-4.75,3.07-3.45-1-6.25-3.28-9.16-5.23-1.56-1-.53-2.14,1-2.44,2-.4,3.93-.76,5.92-1S280,37.53,280.21,39.49Z"/><path class="cls-1" d="M299.92,212.9c2.21.12,3.68,1,3.66,3.21,0,2.55-1.61,3.83-4.06,3.93a3,3,0,0,1-3.5-3.18C296,214.27,297.71,213.18,299.92,212.9Z"/><path class="cls-16" d="M254.48,195.43a49.24,49.24,0,0,1,18.4,4.42c10.29,4.92,20.2,10.54,30,16.31,3.58,2.1,6.65,2.08,10.27.09,21-11.56,42.17-23,63.27-34.42,3.4-1.85,6.9-3.44,10.9-3.22,5.87.32,9.91,3.64,13,8.3a4.07,4.07,0,0,1-.21,4.62,16.71,16.71,0,0,1-3.33,3.56c-11.4,10-22.87,19.88-34.16,30-4.82,4.31-8.6,9.48-12.7,14.4-.93,1.11.14,1.23.67,1.56q12.62,7.81,25.25,15.57c3.71,2.29,7.45,4.55,11.13,6.89a1.75,1.75,0,0,0,2.31-.1c3.45-2.49,6.91-4.95,10.44-7.31,3.33-2.23,6.94-3.25,10.93-2a6.3,6.3,0,0,1,.66.22c5.1,2.27,6.88,5.63,3.77,11.06-7.47,13-15.45,25.74-23.3,38.53-.91,1.49-1.75,3-2.78,4.43-1.41,1.93-2.86,2.29-5,1.36a46.26,46.26,0,0,1-5.83-2.75,6.82,6.82,0,0,1-3.57-6.87c.44-5,.93-10,1.51-15a1.67,1.67,0,0,0-1.12-2.1q-18.88-9-37.7-18.14c-.93-.45-1.44-.44-2.14.41-4,4.9-6,10.68-7.5,16.72q-5.11,21.2-10.18,42.41a23.45,23.45,0,0,1-1.71,5.11,4.56,4.56,0,0,1-5.44,2.75,36.88,36.88,0,0,1-10.57-4,7.68,7.68,0,0,1-4-6,48.35,48.35,0,0,1-.37-7q-.26-33.05-.5-66.11c0-.87,0-1.75-.05-2.62a9.82,9.82,0,0,0-5.76-9.25c-7.21-3.64-14.45-7.23-21.43-11.3-4.62-2.7-9.38-5.18-13.47-8.7a36.29,36.29,0,0,1-7.91-9.26,9.12,9.12,0,0,1-1.34-6.69C245.76,197.58,249.21,195.35,254.48,195.43Z"/><path class="cls-17" d="M243.76,199.93c-24-10.07-47.61-20.84-71.13-31.9L155,159.66l-17.51-8.56c-5.83-2.88-11.65-5.75-17.46-8.68l-17.35-8.89q-8.66-4.48-17.28-9t-17.14-9.33q-8.54-4.72-17-9.57C45.65,102.32,40,99,34.5,95.55S23.44,88.61,18.09,84.81c-2.68-1.9-5.33-3.85-7.91-5.92a55.33,55.33,0,0,1-7.42-6.94A17.67,17.67,0,0,1,1.12,69.7,7.32,7.32,0,0,1,0,66.47c0-.18,0-.35,0-.53s.05-.39.09-.58a3.73,3.73,0,0,1,.4-1.13,4.19,4.19,0,0,1,.68-.94A5.77,5.77,0,0,1,2,62.61a8.39,8.39,0,0,1,3-1.13,23.92,23.92,0,0,1,5.28-.27c1.69.08,3.36.22,5,.43a171.45,171.45,0,0,1,19.28,3.78l1.23.3-.52,2.4L34,67.9c-6.36-1.14-12.75-2.25-19.1-2.77-1.59-.13-3.16-.19-4.71-.2a20.35,20.35,0,0,0-4.41.4,4.64,4.64,0,0,0-1.5.6c0,.05-.12.09-.13.12s-.05,0,0,0,0,0,0,0,0,0,0,0l0,.08a3.69,3.69,0,0,0,.57,1.29A13.64,13.64,0,0,0,6,69.14a51.47,51.47,0,0,0,7,6.11c2.54,1.91,5.18,3.72,7.86,5.49Q28.92,86,37.28,91t16.83,9.65q8.45,4.78,17,9.41t17.14,9.18l17.18,9.12,34.52,18,34.61,17.83C197.64,176,220.75,187.84,243.76,199.93Z"/><path class="cls-17" d="M69.38,75.51C51.33,77.56,28.22,83,12.76,90.92L29.62,65.69,26.43,35.52C36.42,49.75,54.36,65.29,69.38,75.51Z"/></g></g></svg>