<?xml version="1.0" encoding="UTF-8"?>
<svg width="19px" height="16px" viewBox="0 0 19 16" version="1.1" xmlns="http://www.w3.org/2000/svg" xmlns:xlink="http://www.w3.org/1999/xlink">
    <!-- Generator: Sketch 42 (36781) - http://www.bohemiancoding.com/sketch -->
    <title>Page 1</title>
    <desc>Created with Sketch.</desc>
    <defs></defs>
    <g id="Page-1" stroke="none" stroke-width="1" fill="none" fill-rule="evenodd">
        <path d="M17.1267606,3.94014085 L17.1267606,2.02230047 L9.5,6.79460094 L1.87323944,2.02230047 L1.87323944,3.94014085 L9.5,8.66784038 L17.1267606,3.94014085 Z M17.1267606,0.104460094 C17.6322398,0.104460094 18.0708133,0.297729878 18.4424897,0.6842723 C18.8141632,1.07081472 19,1.51682126 19,2.02230047 L19,13.4401408 C19,13.9456206 18.8141632,14.3916257 18.4424897,14.778169 C18.0708133,15.1647124 17.6322398,15.3579812 17.1267606,15.3579812 L1.87323944,15.3579812 C1.36775965,15.3579812 0.929188131,15.1647124 0.557511737,14.778169 C0.1858354,14.3916257 0,13.9456206 0,13.4401408 L0,2.02230047 C0,1.51682126 0.1858354,1.07081472 0.557511737,0.6842723 C0.929188131,0.297729878 1.36775965,0.104460094 1.87323944,0.104460094 L17.1267606,0.104460094 Z" fill="#6BD9C0"></path>
    </g>
</svg>