<?xml version="1.0" encoding="UTF-8"?>
<svg width="16px" height="27px" viewBox="0 0 16 27" version="1.1" xmlns="http://www.w3.org/2000/svg" xmlns:xlink="http://www.w3.org/1999/xlink">
    <!-- Generator: Sketch 42 (36781) - http://www.bohemiancoding.com/sketch -->
    <title>Page 1</title>
    <desc>Created with Sketch.</desc>
    <defs></defs>
    <g id="Page-1" stroke="none" stroke-width="1" fill="none" fill-rule="evenodd">
        <path d="M12.8,5.71249945 C12.8,4.41249305 12.3250048,3.28750425 11.3750016,2.33750105 C10.4249952,1.38749465 9.3000064,0.912499448 8,0.912499448 C6.6999936,0.912499448 5.5750048,1.38749465 4.6249984,2.33750105 C3.6749952,3.28750425 3.2,4.41249305 3.2,5.71249945 C3.2,7.01250585 3.6749952,8.13749465 4.6249984,9.08749785 C5.5750048,10.0375042 6.6999936,10.5124994 8,10.5124994 C9.3000064,10.5124994 10.4249952,10.0375042 11.3750016,9.08749785 C12.3250048,8.13749465 12.8,7.01250585 12.8,5.71249945 Z M8,12.1124994 C5.866656,12.1124994 4.0000096,13.1124898 2.4,15.1124994 C0.799992,17.112509 0,19.4958178 0,22.2624994 C0,23.0625026 0.291663744,23.7624966 0.875,24.3624994 C1.45833632,24.9625023 2.2249952,25.4208313 3.175,25.7374994 C4.1250048,26.0541676 5.1666624,26.2874987 6.3,26.4374994 C7.4333376,26.5875002 8.5666624,26.5875002 9.7,26.4374994 C10.8333376,26.2874987 11.8749952,26.0541676 12.8249984,25.7374994 C13.7750048,25.4208313 14.541664,24.9625023 15.1249984,24.3624994 C15.708336,23.7624966 16,23.0625026 16,22.2624994 C16,19.4958178 15.2000096,17.112509 13.6,15.1124994 C11.9999936,13.1124898 10.133344,12.1124994 8,12.1124994 Z" fill="#6BD9C1"></path>
    </g>
</svg>