<?xml version="1.0" encoding="UTF-8"?>
<svg width="20px" height="20px" viewBox="0 0 20 20" version="1.1" xmlns="http://www.w3.org/2000/svg" xmlns:xlink="http://www.w3.org/1999/xlink">
    <!-- Generator: Sketch 42 (36781) - http://www.bohemiancoding.com/sketch -->
    <title>Page 1</title>
    <desc>Created with Sketch.</desc>
    <defs></defs>
    <g id="Page-1" stroke="none" stroke-width="1" fill="none" fill-rule="evenodd">
        <path d="M20,15.795453 C20,16.0511375 19.9526514,16.3849421 19.8579541,16.7968762 C19.7632568,17.2088087 19.6638282,17.5331426 19.5596586,17.7698861 C19.360795,18.2433735 18.7831486,18.7452624 17.8267067,19.2755681 C16.9365485,19.7585251 16.0558753,20 15.1846584,20 C14.928977,20 14.6804007,19.9834282 14.4389197,19.9502841 C14.197442,19.91714 13.9251929,19.857955 13.6221597,19.7727273 C13.3191265,19.6874996 13.094226,19.6188449 12.9474424,19.5667614 C12.8006619,19.5146779 12.5378819,19.4176143 12.1590928,19.2755681 C11.7803005,19.1335218 11.5482951,19.0482955 11.4630701,19.0198864 C10.5350323,18.6884453 9.70644226,18.2954566 8.9772745,17.8409091 C7.7651449,17.092799 6.51279075,16.0724494 5.22017069,14.7798293 C3.92755063,13.4872092 2.907201,12.2348551 2.15909092,11.0227255 C1.70454335,10.2935577 1.31155474,9.4649677 0.980113635,8.53692993 C0.951704452,8.45170493 0.866478176,8.21969946 0.724431942,7.84090717 C0.582385708,7.46211807 0.485322113,7.19933805 0.433238611,7.05255759 C0.381155108,6.90577395 0.312500441,6.68087349 0.227272733,6.37784029 C0.142045025,6.07480709 0.0828600219,5.80255799 0.0497159114,5.56108025 C0.0165718039,5.31959933 0,5.07102296 0,4.81534158 C0,3.94412472 0.241474875,3.0634515 0.724431942,2.17329328 C1.25473765,1.21685142 1.75662653,0.639205029 2.23011387,0.440341384 C2.46685738,0.336171833 2.79119126,0.236743193 3.20312378,0.142045916 C3.61505789,0.0473486385 3.94886245,-1.77635684e-15 4.20454701,-1.77635684e-15 C4.33712065,-1.77635684e-15 4.43655247,0.014203637 4.50284248,0.0426140928 C4.67329567,0.0994318227 4.9242425,0.459276385 5.25568297,1.12215732 C5.35984933,1.30208279 5.50189207,1.55776416 5.68181753,1.88920463 C5.86174299,2.2206451 6.02746164,2.52130466 6.17897664,2.79119285 C6.33049483,3.06108105 6.47727211,3.31439197 6.61931803,3.55113516 C6.64772848,3.58901471 6.73058622,3.70738471 6.86789758,3.90624836 C7.00520895,4.10511519 7.10700805,4.27319792 7.17329487,4.41050929 C7.23958487,4.54782066 7.27272669,4.68276476 7.27272669,4.81534158 C7.27272669,5.00473614 7.13778578,5.24147615 6.86789758,5.52556798 C6.59800939,5.80965981 6.30445165,6.07007255 5.98721482,6.30681892 C5.66998117,6.54356212 5.37642343,6.79450576 5.10653523,7.05965941 C4.83664704,7.32480988 4.70170612,7.54261171 4.70170612,7.71306808 C4.70170612,7.79829626 4.72537885,7.9048299 4.77272749,8.032669 C4.82007613,8.16051128 4.86032295,8.25757583 4.89346477,8.32386265 C4.92660977,8.39015265 4.99289659,8.50378811 5.09232841,8.66477221 C5.19176342,8.82575631 5.24621387,8.91571904 5.25568297,8.93465722 C5.97538164,10.232015 6.79923713,11.3446905 7.72727171,12.2727283 C8.65530948,13.2007629 9.76798499,14.0246184 11.0653428,14.744317 C11.084281,14.7537861 11.1742437,14.8082366 11.3352278,14.9076716 C11.4962119,15.0071034 11.6098473,15.0733902 11.6761373,15.1065352 C11.7424242,15.1396771 11.8394887,15.1799239 11.967331,15.2272725 C12.0951701,15.2746211 12.2017037,15.2982939 12.2869319,15.2982939 C12.4573883,15.2982939 12.6751901,15.163353 12.9403406,14.8934648 C13.2054942,14.6235766 13.4564379,14.3300188 13.6931811,14.0127852 C13.9299275,13.6955483 14.1903402,13.4019906 14.474432,13.1321024 C14.7585239,12.8622142 14.9952639,12.7272733 15.1846584,12.7272733 C15.3172352,12.7272733 15.4521793,12.7604151 15.5894907,12.8267051 C15.7268021,12.8929919 15.8948848,12.994791 16.0937516,13.1321024 C16.2926153,13.2694138 16.4109853,13.3522715 16.4488648,13.380682 C16.685608,13.5227279 16.938919,13.6695052 17.2088071,13.8210234 C17.4786953,13.9725384 17.7793549,14.138257 18.1107954,14.3181825 C18.4422358,14.4981079 18.6979172,14.6401507 18.8778427,14.744317 C19.5407236,15.0757575 19.9005682,15.3267043 19.9573859,15.4971575 C19.9857964,15.5634475 20,15.6628793 20,15.795453 Z" fill="#6BD9C1"></path>
    </g>
</svg>